<svg width="24" height="25" viewBox="0 0 24 25" fill="none" xmlns="http://www.w3.org/2000/svg">
<path d="M20 4.55444H4C2.9 4.55444 2.01 5.45444 2.01 6.55444L2 18.5544C2 19.6544 2.9 20.5544 4 20.5544H20C21.1 20.5544 22 19.6544 22 18.5544V6.55444C22 5.45444 21.1 4.55444 20 4.55444ZM19.6 8.80444L12.53 13.2244C12.21 13.4244 11.79 13.4244 11.47 13.2244L4.4 8.80444C4.29973 8.74815 4.21192 8.6721 4.14189 8.5809C4.07186 8.48969 4.02106 8.38522 3.99258 8.27381C3.96409 8.16241 3.9585 8.04638 3.97616 7.93275C3.99381 7.81912 4.03434 7.71026 4.09528 7.61274C4.15623 7.51523 4.23632 7.4311 4.33073 7.36544C4.42513 7.29978 4.53187 7.25395 4.6445 7.23074C4.75712 7.20753 4.87328 7.20741 4.98595 7.23039C5.09863 7.25337 5.20546 7.29898 5.3 7.36444L12 11.5544L18.7 7.36444C18.7945 7.29898 18.9014 7.25337 19.014 7.23039C19.1267 7.20741 19.2429 7.20753 19.3555 7.23074C19.4681 7.25395 19.5749 7.29978 19.6693 7.36544C19.7637 7.4311 19.8438 7.51523 19.9047 7.61274C19.9657 7.71026 20.0062 7.81912 20.0238 7.93275C20.0415 8.04638 20.0359 8.16241 20.0074 8.27381C19.9789 8.38522 19.9281 8.48969 19.8581 8.5809C19.7881 8.6721 19.7003 8.74815 19.6 8.80444Z" fill="white"/>
</svg>
