<svg width="16" height="17" viewBox="0 0 16 17" fill="none" xmlns="http://www.w3.org/2000/svg">
<g clip-path="url(#clip0_28_25)">
<path d="M8 15.8566C6.14348 15.8566 4.36301 15.1191 3.05025 13.8063C1.7375 12.4936 1 10.7131 1 8.85657C1 7.00005 1.7375 5.21957 3.05025 3.90682C4.36301 2.59407 6.14348 1.85657 8 1.85657C9.85652 1.85657 11.637 2.59407 12.9497 3.90682C14.2625 5.21957 15 7.00005 15 8.85657C15 10.7131 14.2625 12.4936 12.9497 13.8063C11.637 15.1191 9.85652 15.8566 8 15.8566ZM8 16.8566C10.1217 16.8566 12.1566 16.0137 13.6569 14.5134C15.1571 13.0131 16 10.9783 16 8.85657C16 6.73484 15.1571 4.7 13.6569 3.19971C12.1566 1.69942 10.1217 0.856567 8 0.856567C5.87827 0.856567 3.84344 1.69942 2.34315 3.19971C0.842855 4.7 0 6.73484 0 8.85657C0 10.9783 0.842855 13.0131 2.34315 14.5134C3.84344 16.0137 5.87827 16.8566 8 16.8566Z" fill="white"/>
<path d="M6.271 5.91157C6.35278 5.86946 6.4446 5.85072 6.53635 5.85742C6.62809 5.86413 6.71621 5.89601 6.791 5.94957L10.291 8.44957C10.3558 8.49582 10.4086 8.55688 10.4451 8.62768C10.4816 8.69847 10.5006 8.77694 10.5006 8.85657C10.5006 8.93619 10.4816 9.01467 10.4451 9.08546C10.4086 9.15625 10.3558 9.21732 10.291 9.26357L6.791 11.7636C6.71623 11.8171 6.62816 11.8489 6.53646 11.8556C6.44476 11.8623 6.35299 11.8436 6.27124 11.8016C6.18948 11.7595 6.12091 11.6957 6.07306 11.6172C6.0252 11.5387 5.99993 11.4485 6 11.3566V6.35657C5.9999 6.26465 6.02515 6.17449 6.07296 6.09598C6.12077 6.01747 6.18929 5.95367 6.271 5.91157Z" fill="white"/>
</g>
<defs>
<clipPath id="clip0_28_25">
<rect width="16" height="16" fill="white" transform="translate(0 0.856567)"/>
</clipPath>
</defs>
</svg>
